<svg width="221" height="50" viewBox="0 0 221 50" fill="none" xmlns="http://www.w3.org/2000/svg">
<path d="M83.4885 23.751C86.5246 19.2628 87.3877 15.3838 85.9966 13.9927C85.56 13.5662 84.8999 13.3428 84.0368 13.3428C82.138 13.3428 79.3354 14.409 76.2383 16.5008C77.5279 17.4959 78.8175 18.623 80.0868 19.8923C81.3561 21.1616 82.4934 22.4512 83.4783 23.7408L83.4885 23.751Z" fill="white"/>
<path d="M69.9038 19.9023C71.1731 18.633 72.4627 17.4958 73.7523 16.5108C70.6552 14.419 67.8526 13.3528 65.9537 13.3528C65.1008 13.3528 64.4306 13.566 63.9939 14.0027C62.6028 15.3938 63.4659 19.2626 66.5021 23.761C67.4972 22.4714 68.6345 21.1818 69.8936 19.9125L69.9038 19.9023Z" fill="white"/>
<path d="M82.5932 25C81.5981 23.6698 80.4202 22.2989 79.0595 20.9383C77.6988 19.5776 76.328 18.3997 74.9978 17.4045C73.6676 18.3997 72.2967 19.5776 70.9361 20.9383C69.5754 22.2989 68.3975 23.6698 67.4023 25C68.3975 26.3302 69.5754 27.7011 70.9361 29.0617C72.2967 30.4224 73.6676 31.6003 74.9978 32.5954C76.328 31.6003 77.6988 30.4224 79.0595 29.0617C80.4202 27.7011 81.5981 26.3302 82.5932 25Z" fill="white"/>
<path d="M66.5138 26.249C63.4776 30.7372 62.6145 34.6162 64.0057 36.0073C65.3968 37.3985 69.2656 36.5354 73.764 33.4891C72.4744 32.4939 71.1848 31.3567 69.9155 30.0975C68.6462 28.8282 67.5089 27.5386 66.5239 26.249H66.5138Z" fill="white"/>
<path d="M12.5 0C5.59505 0 0 5.59505 0 12.5V37.5C0 44.405 5.59505 50 12.5 50H87.5C94.405 50 100 44.405 100 37.5V0H12.5ZM50 48.5378H12.5C6.41755 48.5378 1.46223 43.5825 1.46223 37.5V12.5C1.46223 6.41755 6.41755 1.46223 12.5 1.46223H50V48.5378ZM87.0329 37.0329C86.3119 37.7539 85.2762 38.0991 84.0475 38.0991C81.6206 38.0991 78.3814 36.7689 75 34.3928C71.6186 36.7689 68.3794 38.0991 65.9525 38.0991C64.7136 38.0991 63.6881 37.7539 62.9671 37.0329C60.8245 34.8903 62.0126 30.1076 65.5971 25C62.0126 19.8924 60.8245 15.1097 62.9671 12.9671C65.1097 10.8245 69.8924 12.0126 75 15.5971C80.1076 12.0126 84.8903 10.8245 87.0329 12.9671C89.1755 15.1097 87.9874 19.8924 84.4029 25C87.9874 30.1076 89.1755 34.8903 87.0329 37.0329Z" fill="white"/>
<path d="M80.0985 30.0975C78.8292 31.3668 77.5396 32.5041 76.25 33.4891C80.7382 36.5252 84.6172 37.3883 86.0083 36.0073C87.3995 34.6162 86.5364 30.7474 83.5002 26.249C82.5051 27.5386 81.3678 28.8282 80.1087 30.0975H80.0985Z" fill="white"/>
<path d="M10.5504 15.2113C9.21004 16.8867 8.61093 19.1715 9.02726 21.0297C10.1036 25.8429 14.5715 26.6146 17.8514 27.0411C20.4407 27.3762 22.9184 27.8534 22.8575 30.1585C22.7864 32.5549 20.0853 33.1438 18.3083 33.1438C13.6881 33.1438 13.5358 29.732 13.5358 29.732H8.57031C8.64139 31.0114 9.02726 33.0728 10.6113 34.8396C12.3376 36.7791 14.9371 37.7539 18.3185 37.7539C20.918 37.7539 23.284 36.9111 24.9696 35.4083V37.4696H29.6V31.5699L31.2348 29.7726L35.916 37.4696H41.3079L34.4944 26.2084L41.3079 18.745H35.3067L29.6 25.0001V12.5001H24.9696V15.526C24.8173 15.3331 24.6548 15.1402 24.4822 14.9473C22.7966 13.1601 20.3697 12.2563 17.2624 12.2563C13.6779 12.2563 11.6369 13.8607 10.5504 15.2113ZM17.3437 16.5923C19.4253 16.5923 21.5069 17.0594 22.299 19.9533H24.9594V24.3806C21.639 21.6491 14.4294 23.3652 13.6576 19.9635C13.2515 18.1763 15.0285 16.5923 17.3437 16.5923Z" fill="white"/>
<path d="M111.795 34.3421C112.11 34.4437 112.466 34.4944 112.882 34.4944C113.4 34.4944 113.816 34.3421 114.131 34.0273C114.446 33.7125 114.649 33.2962 114.75 32.8393L108.16 18.8872H112.547L116.771 28.8994L120.477 18.8872H124.651L118.711 32.6362C117.929 34.4538 117.126 35.8043 116.243 36.6573C115.36 37.5407 114.405 37.9774 113.339 37.9774C112.973 37.9774 112.689 37.9774 112.455 37.9266C112.191 37.8961 111.988 37.8454 111.806 37.7946L111.308 37.6423C111.176 37.5915 111.044 37.5407 110.922 37.5103V33.9867C111.156 34.139 111.44 34.271 111.775 34.3523L111.795 34.3421Z" fill="white"/>
<path d="M131.801 32.2706C131.537 32.3519 131.253 32.4027 130.948 32.4737C130.633 32.5245 130.298 32.5753 129.963 32.6057C129.628 32.6565 129.293 32.6565 128.978 32.6565C128.176 32.6565 127.495 32.5753 126.876 32.4534C126.277 32.3011 125.759 32.0879 125.343 31.7832C124.926 31.4684 124.612 31.0521 124.409 30.5343C124.205 30.0367 124.094 29.4173 124.094 28.6963V23.7207H127.668V27.9957C127.668 28.3815 127.719 28.7268 127.82 28.9502C127.902 29.2142 128.054 29.4173 128.257 29.5696C128.46 29.7219 128.694 29.8336 129.008 29.8844C129.323 29.9351 129.679 29.9656 130.095 29.9656C130.714 29.9656 131.181 29.9148 131.547 29.8133C131.913 29.6813 132.197 29.5493 132.4 29.4274V23.7207H135.974V37.5204H132.4V32.0777C132.248 32.1285 132.034 32.2097 131.781 32.2808L131.801 32.2706Z" fill="white"/>
<path d="M149.846 35.7943C149.877 36.0583 149.948 36.2918 150.029 36.4137C150.11 36.5965 150.181 36.698 150.293 36.7793C150.394 36.8605 150.476 36.9113 150.608 36.9316V37.5002H146.637L146.434 36.8503C146.333 36.5863 146.302 36.2817 146.302 35.8857L145.5 36.6879C145.216 36.9214 144.931 37.1245 144.596 37.3073C144.261 37.4901 143.896 37.6424 143.459 37.7439C143.022 37.8455 142.505 37.8962 141.905 37.8962C141.306 37.8962 140.717 37.815 140.189 37.6322C139.671 37.4494 139.235 37.1651 138.839 36.83C138.473 36.4645 138.169 36.0278 137.955 35.4795C137.752 34.9616 137.641 34.3422 137.641 33.6416C137.641 33.0729 137.722 32.555 137.905 32.0575C138.087 31.5599 138.341 31.1537 138.656 30.7882C138.991 30.4226 139.387 30.118 139.844 29.8845C140.311 29.6204 140.829 29.4681 141.428 29.3869L144.931 28.869C145.063 28.8386 145.195 28.8386 145.348 28.7878C145.5 28.7573 145.632 28.7065 145.764 28.605C145.896 28.5238 145.998 28.4222 146.079 28.2902C146.16 28.1379 146.211 27.9551 146.211 27.7216C146.211 27.488 146.16 27.2849 146.109 27.1022C146.028 26.8991 145.906 26.7366 145.744 26.6046C145.561 26.4523 145.358 26.3406 145.074 26.2695C144.789 26.1883 144.424 26.168 144.007 26.168C143.51 26.168 143.154 26.2187 142.87 26.3C142.555 26.4015 142.322 26.564 142.169 26.7163C141.987 26.8991 141.855 27.1022 141.784 27.3154L141.631 28.0668H138.057C138.057 27.9145 138.087 27.681 138.138 27.3662C138.189 27.0819 138.291 26.7468 138.453 26.3812C138.585 26.0461 138.819 25.6806 139.072 25.315C139.336 24.9494 139.671 24.6143 140.139 24.2996C140.555 24.0152 141.103 23.7512 141.723 23.5684C142.342 23.3857 143.073 23.2841 143.957 23.2537C145.175 23.2537 146.191 23.3857 146.962 23.6192C147.714 23.8832 148.313 24.2183 148.749 24.6042C149.166 25.0205 149.45 25.4572 149.602 25.9547C149.734 26.4523 149.806 26.9397 149.806 27.4373V34.7484C149.806 35.1647 149.836 35.4998 149.887 35.7638L149.846 35.7943ZM145.541 31.0725C145.307 31.1741 145.023 31.2756 144.657 31.3365L143.703 31.5193C143.286 31.6005 142.921 31.6716 142.616 31.7833C142.301 31.8849 142.048 32.0169 141.834 32.1692C141.631 32.352 141.469 32.555 141.367 32.7886C141.266 33.0221 141.215 33.3065 141.215 33.672C141.215 33.9563 141.266 34.2204 141.347 34.4234C141.448 34.657 141.581 34.8093 141.763 34.9718C141.916 35.1038 142.098 35.2358 142.312 35.2866C142.545 35.3678 142.779 35.3881 143.043 35.3881C143.175 35.3881 143.358 35.3576 143.561 35.3373C143.764 35.3069 143.977 35.2561 144.231 35.185C144.464 35.0835 144.698 34.9819 144.931 34.8195C145.165 34.6875 145.368 34.4844 145.551 34.2508C145.754 34.0173 145.916 33.7329 146.018 33.3674C146.12 33.0323 146.201 32.6363 146.201 32.1793V30.778C145.998 30.91 145.764 31.0116 145.551 31.0928L145.541 31.0725Z" fill="white"/>
<path d="M159.857 27.6301C159.755 27.3458 159.593 27.1122 159.42 26.9294C159.217 26.7264 158.984 26.5944 158.72 26.4928C158.435 26.4116 158.1 26.3608 157.704 26.3608C157.105 26.3608 156.638 26.4928 156.283 26.7771C155.917 27.0615 155.633 27.3965 155.45 27.8129C155.247 28.2495 155.135 28.7166 155.064 29.2142C155.013 29.7117 154.963 30.1687 154.963 30.6155C154.963 31.0623 154.993 31.5497 155.044 32.0371C155.095 32.555 155.196 32.9916 155.409 33.4079C155.592 33.8242 155.846 34.1898 156.242 34.4437C156.608 34.728 157.095 34.86 157.725 34.86C158.141 34.86 158.506 34.7788 158.811 34.596C159.095 34.4437 159.359 34.2304 159.562 33.9969C159.766 33.7329 159.928 33.479 160.03 33.1947C160.111 32.9307 160.162 32.6768 160.162 32.4433H163.898C163.898 32.6768 163.868 32.9611 163.797 33.3267C163.695 33.7125 163.563 34.0781 163.381 34.4944C163.198 34.8803 162.944 35.2966 162.649 35.713C162.314 36.1293 161.949 36.4948 161.482 36.7995C161.015 37.1346 160.497 37.3986 159.877 37.6017C159.258 37.8047 158.527 37.9164 157.725 37.9164C156.689 37.9164 155.755 37.7641 154.952 37.4493C154.15 37.1143 153.47 36.6472 152.932 36.0277C152.383 35.4083 151.967 34.6569 151.683 33.7227C151.398 32.819 151.246 31.7731 151.246 30.6155C151.246 29.4579 151.398 28.3815 151.713 27.4778C152.028 26.5944 152.465 25.8226 153.033 25.1931C153.602 24.5736 154.282 24.1065 155.084 23.7918C155.866 23.4567 156.77 23.2942 157.735 23.2942C158.151 23.2942 158.588 23.345 159.055 23.3957C159.491 23.4465 159.938 23.5785 160.375 23.7308C160.811 23.9136 161.228 24.1167 161.644 24.3807C162.03 24.6447 162.396 24.9798 162.731 25.3657C163.045 25.7515 163.299 26.2186 163.513 26.7365C163.716 27.2544 163.848 27.8738 163.898 28.5744H160.162C160.08 28.2089 160.009 27.8738 159.877 27.6199L159.857 27.6301Z" fill="white"/>
<path d="M176.367 23.7105V26.6147H172.193V37.5103H168.619V26.6147H164.445V23.7105H176.377H176.367Z" fill="white"/>
<path d="M186.319 28.6963V23.7207H189.893V37.5205H186.319V31.6106H181.059V37.5205H177.484V23.7207H181.059V28.6963H186.319Z" fill="white"/>
<path d="M195.922 32.2198L200.959 23.7104H204.716V37.5102H201.141V29.1836H201.091L196.216 37.5102H192.297V23.7104H195.871V32.2198H195.922Z" fill="white"/>
<path d="M215.909 23.7106H220.681L214.974 29.4376L220.915 37.5002H216.244L212.202 31.6614L210.75 33.144V37.5002H207.176V23.7004H210.75V28.9401L215.909 23.7004V23.7106Z" fill="white"/>
</svg>
