<svg width="51" height="36" viewBox="0 0 51 36" fill="none" xmlns="http://www.w3.org/2000/svg">
<path d="M13.3302 1.28051C13.3303 1.11954 13.2953 0.960522 13.2279 0.814691C13.1604 0.66886 13.0621 0.539779 12.9398 0.436575C12.6952 0.20523 12.3717 0.0780973 12.0367 0.0816492C11.8038 0.0778642 11.5746 0.140758 11.3756 0.263056C11.1562 0.404187 10.9896 0.615085 10.902 0.862486L6.73786 10.2115L2.56334 0.844082C2.47188 0.611191 2.31107 0.412745 2.10314 0.276166C1.89521 0.139586 1.65042 0.0716167 1.40259 0.0816492C1.04757 0.0798885 0.703499 0.205688 0.431833 0.436575C0.296375 0.538156 0.186622 0.670663 0.111538 0.823275C0.036454 0.975887 -0.00183214 1.14427 -0.000193683 1.31469C-0.00164511 1.48205 0.034856 1.64753 0.106512 1.79844L5.31166 12.9773L3.45342 16.984C3.3752 17.1553 3.3293 17.3399 3.31809 17.5282C3.31575 17.6861 3.35009 17.8423 3.41834 17.9843C3.48659 18.1263 3.58685 18.2501 3.71107 18.3459C3.95587 18.5556 4.26716 18.6695 4.58814 18.6666C4.82369 18.6656 5.05368 18.5942 5.24919 18.4615C5.46262 18.32 5.62866 18.1165 5.72546 17.8779L13.2235 1.79844C13.2944 1.63521 13.3308 1.45878 13.3302 1.28051Z" fill="#2963A3"/>
<path d="M39.507 12.5119C39.499 12.6808 39.5262 12.8494 39.5867 13.007C39.6472 13.1646 39.7397 13.3076 39.8583 13.4269C39.9819 13.5417 40.1266 13.6308 40.2842 13.689C40.4419 13.7472 40.6094 13.7733 40.7771 13.766C41.1427 13.7819 41.5001 13.6537 41.7738 13.4085C41.9 13.2916 42 13.1487 42.0668 12.9896C42.1337 12.8304 42.1661 12.6585 42.1616 12.4857V1.39093C42.1707 1.21097 42.143 1.03106 42.0803 0.862362C42.0176 0.693665 41.9213 0.539787 41.7973 0.410283C41.5162 0.179437 41.1643 0.0545151 40.8021 0.0569133C40.4398 0.0593115 40.0896 0.188881 39.8115 0.423428C39.6855 0.549349 39.5869 0.700421 39.5219 0.867005C39.4569 1.03359 39.427 1.21203 39.4341 1.39093V7.798C39.4341 8.94077 39.1149 9.85832 38.4764 10.5506C38.1491 10.8972 37.7521 11.169 37.3122 11.3477C36.8723 11.5264 36.3996 11.6078 35.9259 11.5865C35.0288 11.5865 34.3634 11.3324 33.9297 10.8241C33.4959 10.3158 33.2799 9.52706 33.2817 8.4579V1.39093C33.2907 1.21097 33.263 1.03106 33.2003 0.862362C33.1377 0.693665 33.0413 0.539787 32.9173 0.410283C32.7837 0.287378 32.6272 0.192669 32.457 0.131719C32.2867 0.0707689 32.1061 0.0448066 31.9257 0.0553568C31.7421 0.0443244 31.5582 0.0699965 31.3845 0.130902C31.2108 0.191807 31.0506 0.286748 30.9133 0.410283C30.7881 0.538944 30.691 0.692688 30.6282 0.861596C30.5655 1.0305 30.5385 1.21083 30.5489 1.39093V8.48945C30.5489 12.051 32.1504 13.8317 35.3533 13.8317C36.2041 13.8435 37.044 13.6372 37.7945 13.2323C38.5228 12.8332 39.1185 12.2259 39.507 11.4866V12.5119Z" fill="#2963A3"/>
<path d="M15.3552 33.8916L14.5978 33.8364C13.8795 33.7821 13.3442 33.5551 12.992 33.1555C12.6433 32.7559 12.4715 32.1275 12.4715 31.2731V24.6767H15.134C15.4483 24.7006 15.7605 24.6071 16.011 24.4138C16.1172 24.3137 16.2001 24.191 16.2536 24.0546C16.3072 23.9182 16.3301 23.7715 16.3207 23.6251C16.329 23.4787 16.3056 23.3324 16.2521 23.1961C16.1986 23.0599 16.1163 22.9371 16.011 22.8363C15.7648 22.6328 15.4516 22.5304 15.134 22.5498H12.4611V19.7419C12.4712 19.5607 12.4428 19.3794 12.3777 19.2102C12.3126 19.0411 12.2124 18.888 12.0837 18.7613C11.8093 18.5153 11.4508 18.3871 11.0843 18.4037C10.9053 18.3942 10.7261 18.4207 10.5573 18.4816C10.3884 18.5425 10.2332 18.6367 10.1006 18.7586C9.97538 18.8873 9.87827 19.041 9.81551 19.2099C9.75275 19.3789 9.72574 19.5592 9.73622 19.7393V22.5498H8.11742C7.79972 22.5299 7.48636 22.6323 7.24035 22.8363C7.13412 22.9365 7.05106 23.0592 6.99708 23.1955C6.9431 23.3318 6.91953 23.4785 6.92804 23.6251C6.92804 24.3261 7.3245 24.6767 8.11742 24.6767H9.73622V31.0838C9.73622 32.627 10.0954 33.797 10.8163 34.5857C11.5372 35.3744 12.6225 35.8266 14.0799 35.937L14.8086 35.9896C15.2322 36.0514 15.664 35.97 16.037 35.7583C16.1723 35.6685 16.2821 35.5446 16.3555 35.399C16.429 35.2533 16.4637 35.0908 16.4561 34.9275C16.4635 34.7954 16.4442 34.6632 16.3995 34.539C16.3547 34.4147 16.2854 34.3009 16.1958 34.2045C15.9591 34.0064 15.6625 33.8961 15.3552 33.8916Z" fill="#2963A3"/>
<path d="M36.0118 16.4976C35.6534 16.4854 35.3031 16.6071 35.028 16.8394C34.8939 16.9653 34.7892 17.1198 34.7217 17.2917C34.6542 17.4637 34.6254 17.6486 34.6376 17.8332V34.683C34.6246 34.8657 34.653 35.049 34.7206 35.2189C34.7883 35.3888 34.8934 35.5409 35.028 35.6636C35.3068 35.8877 35.6558 36.0034 36.0118 35.9896C36.3648 36.0049 36.7111 35.8889 36.9851 35.6636C37.1159 35.5385 37.2176 35.3857 37.2828 35.2161C37.3481 35.0465 37.3753 34.8645 37.3625 34.683V17.8332C37.3745 17.6498 37.347 17.466 37.2819 17.2944C37.2167 17.1228 37.1155 16.9676 36.9851 16.8394C36.7147 16.606 36.3672 16.484 36.0118 16.4976Z" fill="#2963A3"/>
<path d="M50.5132 33.6997L45.2248 28.9831L50.0291 24.54C50.1684 24.4229 50.2814 24.2773 50.3608 24.1128C50.4402 23.9482 50.4842 23.7686 50.4898 23.5856C50.4812 23.2483 50.3445 22.9273 50.1081 22.689C49.8717 22.4506 49.5536 22.3132 49.2197 22.3053C48.8833 22.327 48.5665 22.473 48.3296 22.7154L42.1771 28.5204V17.8332C42.1897 17.6498 42.1624 17.4658 42.0973 17.2941C42.0321 17.1225 41.9305 16.9673 41.7998 16.8394C41.5304 16.606 41.1837 16.4839 40.829 16.4976C40.4698 16.4853 40.1187 16.6069 39.8426 16.8394C39.7085 16.9653 39.6039 17.1198 39.5363 17.2918C39.4688 17.4637 39.4401 17.6486 39.4523 17.8332V34.6593C39.44 34.8443 39.4687 35.0296 39.5363 35.202C39.6038 35.3743 39.7084 35.5293 39.8426 35.6557C40.1191 35.8873 40.4702 36.008 40.829 35.9949C41.1833 36.0094 41.53 35.8882 41.7998 35.6557C41.9306 35.5273 42.0321 35.3717 42.0973 35.1996C42.1625 35.0275 42.1897 34.8431 42.1771 34.6593V29.6115L48.897 35.6084C49.1413 35.8532 49.4716 35.9903 49.8157 35.9896C49.9739 35.9904 50.1304 35.9568 50.2746 35.891C50.4187 35.8253 50.5472 35.7289 50.6511 35.6084C50.8844 35.3667 51.0135 35.0416 51.0103 34.704C51.0096 34.5092 50.9643 34.3173 50.8781 34.1431C50.7919 33.9689 50.667 33.8171 50.5132 33.6997Z" fill="#2963A3"/>
<path d="M15.3342 13.8212H22.3299C23.5216 13.8473 24.6992 13.5563 25.7445 12.9773C26.7188 12.417 27.5075 11.5782 28.0113 10.5664C28.5602 9.4342 28.8324 8.18555 28.8051 6.92515C28.8355 5.65685 28.5633 4.39979 28.0113 3.26021C27.5091 2.24593 26.7202 1.40505 25.7445 0.844087C24.6992 0.265099 23.5216 -0.0259512 22.3299 0.000152312H20.1203C18.9294 -0.0259836 17.7526 0.265083 16.7083 0.844087C15.7314 1.40353 14.9421 2.24482 14.4415 3.26021C13.8886 4.39956 13.6155 5.65664 13.6451 6.92515V10.7794C13.6451 13.001 14.2073 13.8212 15.3342 13.8212ZM17.3694 3.41796C18.0183 2.61171 18.9353 2.20858 20.1203 2.20858H22.3299C23.5167 2.20858 24.4345 2.61346 25.0834 3.42322C25.7323 4.23297 26.0559 5.40029 26.0542 6.92515C26.0542 8.4693 25.7349 9.64099 25.0964 10.4402C24.4579 11.2395 23.5357 11.64 22.3299 11.6417H16.4298C16.4298 11.6417 16.396 8.46842 16.396 6.92515C16.396 5.38188 16.7213 4.23034 17.3694 3.41796Z" fill="#2963A3"/>
<path d="M29.6094 23.023C28.5657 22.4423 27.3887 22.1502 26.1975 22.1764H23.9879C22.7959 22.1515 21.6184 22.4434 20.5733 23.023C19.5977 23.5829 18.8087 24.4229 18.3065 25.4365C17.7605 26.5777 17.4927 27.8344 17.5257 29.1014C17.4953 30.3607 17.763 31.6091 18.3065 32.7427C18.8095 33.7551 19.5984 34.594 20.5733 35.1536C21.6187 35.7322 22.7962 36.0232 23.9879 35.9975H30.9836C32.1131 35.9975 32.6727 35.1772 32.6727 32.9478V29.1014C32.7029 27.8329 32.4297 26.5756 31.8763 25.4365C31.3756 24.4218 30.5862 23.5814 29.6094 23.023ZM29.8879 33.818H23.9879C22.7855 33.818 21.8633 33.4184 21.2214 32.6191C20.5794 31.8199 20.261 30.6473 20.2662 29.1014C20.2662 27.5731 20.5898 26.4058 21.237 25.5995C21.8841 24.7933 22.8011 24.3884 23.9879 24.3849H26.1975C27.3842 24.3849 28.3021 24.7897 28.951 25.5995C29.5999 26.4093 29.9261 27.5766 29.9296 29.1014C29.9296 30.6447 29.8879 33.818 29.8879 33.818Z" fill="#2963A3"/>
</svg>
