<svg width="179" height="36" viewBox="0 0 179 36" fill="none" xmlns="http://www.w3.org/2000/svg">
<path fill-rule="evenodd" clip-rule="evenodd" d="M178.875 18H112.875V17H178.875V18Z" fill="#0063A8"/>
<path fill-rule="evenodd" clip-rule="evenodd" d="M66.125 18H0.125V17H66.125V18Z" fill="#0063A8"/>
<path fill-rule="evenodd" clip-rule="evenodd" d="M88.5239 0.624443C88.6821 0.620184 88.8408 0.618042 88.9999 0.618042C89.159 0.618042 89.3177 0.620184 89.4759 0.624443L89.4015 3.3874C89.2681 3.38381 89.1342 3.382 88.9999 3.382C88.8656 3.382 88.7317 3.38381 88.5983 3.3874L88.5239 0.624443ZM97.2782 2.71247C97.5573 2.86391 97.8318 3.02276 98.1014 3.18874L96.6523 5.54235C96.4256 5.40276 96.1948 5.26919 95.9601 5.14188L97.2782 2.71247ZM79.8984 3.18874C80.168 3.02276 80.4425 2.86391 80.7216 2.71247L82.0397 5.14189C81.805 5.2692 81.5742 5.40276 81.3475 5.54235L79.8984 3.18874ZM103.811 8.89851C103.977 9.16809 104.136 9.44258 104.287 9.7217L101.858 11.0398C101.731 10.8052 101.597 10.5744 101.458 10.3476L103.811 8.89851ZM73.7123 9.7217C73.8638 9.44258 74.0226 9.16809 74.1886 8.89851L76.5422 10.3476C76.4026 10.5744 76.2691 10.8052 76.1418 11.0398L73.7123 9.7217ZM106.375 17.524C106.38 17.6822 106.382 17.8409 106.382 18C106.382 18.1592 106.38 18.3178 106.375 18.476L103.613 18.4016C103.616 18.2682 103.618 18.1344 103.618 18C103.618 17.8657 103.616 17.7318 103.613 17.5984L106.375 17.524ZM71.6179 18C71.6179 17.8409 71.6201 17.6822 71.6243 17.524L74.3873 17.5984C74.3837 17.7318 74.3819 17.8657 74.3819 18C74.3819 18.1344 74.3837 18.2682 74.3873 18.4016L71.6243 18.476C71.6201 18.3178 71.6179 18.1592 71.6179 18ZM104.287 26.2783C104.136 26.5575 103.977 26.8319 103.811 27.1015L101.458 25.6524C101.597 25.4257 101.731 25.1949 101.858 24.9602L104.287 26.2783ZM74.1886 27.1015C74.0226 26.8319 73.8638 26.5575 73.7124 26.2783L76.1418 24.9602C76.2691 25.1949 76.4026 25.4257 76.5422 25.6524L74.1886 27.1015ZM98.1014 32.8113C97.8318 32.9773 97.5573 33.1361 97.2782 33.2876L95.9601 30.8582C96.1948 30.7308 96.4256 30.5973 96.6523 30.4577L98.1014 32.8113ZM80.7216 33.2876C80.4425 33.1361 80.168 32.9773 79.8984 32.8113L81.3475 30.4577C81.5742 30.5973 81.805 30.7308 82.0397 30.8582L80.7216 33.2876ZM88.9999 35.382C88.8408 35.382 88.6821 35.3799 88.5239 35.3756L88.5983 32.6126C88.7317 32.6162 88.8656 32.618 88.9999 32.618C89.1342 32.618 89.2681 32.6162 89.4015 32.6126L89.4759 35.3756C89.3177 35.3799 89.159 35.382 88.9999 35.382Z" fill="#0063A8"/>
<path fill-rule="evenodd" clip-rule="evenodd" d="M88.3889 6.81247L81.4831 19.9673C81.1336 20.6331 81.6165 21.4321 82.3685 21.4321H86.0514L85.8715 27.9452C85.813 30.0634 88.6566 30.8063 89.6415 28.9301L96.5473 15.7753C96.8969 15.1094 96.414 14.3105 95.6619 14.3105H91.979L92.159 7.79733C92.2175 5.67916 89.3738 4.93631 88.3889 6.81247Z" fill="#FFDF4E"/>
<path fill-rule="evenodd" clip-rule="evenodd" d="M87.4782 20.0442L87.2588 27.9836C87.2409 28.6319 88.1113 28.8592 88.4127 28.285L95.0202 15.6983H90.5523L90.7716 7.759C90.7896 7.11068 89.9192 6.88333 89.6177 7.45756L83.0102 20.0442H87.4782ZM92.159 7.79733C92.2175 5.67916 89.3738 4.93631 88.3889 6.81247L81.4831 19.9673C81.1336 20.6331 81.6165 21.4321 82.3685 21.4321H86.0514L85.8715 27.9452C85.813 30.0634 88.6566 30.8063 89.6415 28.9301L96.5473 15.7753C96.8969 15.1094 96.414 14.3105 95.6619 14.3105H91.979L92.159 7.79733Z" fill="#0063A8"/>
</svg>
